<?xml version="1.0" encoding="utf-8"?>
<!-- Generator: Adobe Illustrator 24.0.0, SVG Export Plug-In . SVG Version: 6.00 Build 0)  -->
<svg version="1.1" id="图层_1" xmlns="http://www.w3.org/2000/svg" xmlns:xlink="http://www.w3.org/1999/xlink" x="0px" y="0px"
	 viewBox="0 0 28 28" style="enable-background:new 0 0 28 28;" xml:space="preserve">
<style type="text/css">
	.st0{fill:#6D6D73;}
</style>
<title>编辑</title>
<desc>Created with Sketch.</desc>
<g id="页面-1">
	<g id="更换收货地址-V2.0" transform="translate(-699.000000, -308.000000)">
		<g id="编组-3" transform="translate(0.000000, 232.000000)">
			<path id="编辑" class="st0" d="M708.5,77c0,0.5-0.5,1-1,1h-4.8c-0.9,0-1.6,0.8-1.6,1.6v19.9c0,0.9,0.7,1.6,1.6,1.6h19.9
				c0.9,0,1.6-0.8,1.6-1.6V92c0-0.5,0.5-1,1-1s1,0.5,1,1v8c0,1.8-1.4,3.3-3.3,3.3h-20.7c-1.8,0-3.3-1.4-3.3-3.3V79.3
				c0-1.8,1.4-3.3,3.3-3.3h5.2C708,76,708.5,76.5,708.5,77z M716.8,77.9c1.8-1.8,5-1.6,7,0.5c2.1,2.1,2.3,5.2,0.5,7l-9.7,9.7
				c-0.2,0.2-0.5,0.3-0.7,0.3l-6.3,0.3h-0.1c-0.3,0-0.5-0.1-0.7-0.3c-0.2-0.2-0.3-0.5-0.3-0.8l0.3-6.3c0-0.3,0.1-0.5,0.3-0.8
				L716.8,77.9z M722.1,80.1c-1.1-1.1-2.8-1.4-3.6-0.5l-9.8,9.8l-0.2,4.3l4.3-0.2l9.8-9.8C723.5,82.9,723.2,81.2,722.1,80.1z"/>
		</g>
	</g>
</g>
</svg>
